<svg width="161.45px" height="134.24000549316406px" xmlns="http://www.w3.org/2000/svg" viewBox="169.275 7.879997253417969 161.45 134.24000549316406" style="background: rgba(0, 0, 0, 0);" preserveAspectRatio="xMidYMid"><defs><filter id="editing-vr"><feFlood flood-color="#f00" flood-opacity="0.7" result="c1"></feFlood><feFlood flood-color="#00f" flood-opacity="0.7" result="c3"></feFlood><feComposite operator="in" in="c1" in2="SourceAlpha" result="text-c1"></feComposite><feComposite operator="in" in="c3" in2="SourceAlpha" result="text-c3"></feComposite><feOffset in="text-c1" dx="5" dy="-1" result="text1"></feOffset><feOffset in="text-c3" dx="-5" dy="1" result="text3"></feOffset><feBlend in="SourceGraphic" in2="text1" mode="multiply" result="text4"></feBlend><feBlend in="text4" in2="text3" mode="multiply"></feBlend></filter></defs><g filter="url(#editing-vr)"><g transform="translate(200.71322393417358, 98.35999870300293)"><path d="M33.78-1.16L33.78 0L12.88 0L12.88-1.16L12.88-1.16Q14.53-1.16 15.59-1.48L15.59-1.48L15.59-1.48Q16.66-1.81 17.28-2.39L17.28-2.39L17.28-2.39Q17.91-2.97 18.14-3.72L18.14-3.72L18.14-3.72Q18.38-4.47 18.38-5.31L18.38-5.31L18.38-18.31L5.69-39.28L5.63-39.28L5.63-39.28Q5.25-39.91 4.61-40.67L4.61-40.67L4.61-40.67Q3.97-41.44 3-42.09L3-42.09L3-42.09Q2.03-42.75 0.69-43.20L0.69-43.20L0.69-43.20Q-0.66-43.66-2.44-43.66L-2.44-43.66L-2.44-44.81L19.13-44.81L19.13-43.66L19.13-43.66Q17.06-43.66 16.31-43.16L16.31-43.16L16.31-43.16Q15.56-42.66 15.56-41.84L15.56-41.84L15.56-41.84Q15.56-41.28 15.81-40.63L15.81-40.63L15.81-40.63Q16.06-39.97 16.44-39.28L16.44-39.28L27.53-21.69L27.53-21.69Q30.41-25.28 32.94-29.59L32.94-29.59L32.94-29.59Q35.47-33.91 37.81-39.28L37.81-39.28L37.81-39.28Q38.34-40.41 38.34-41.22L38.34-41.22L38.34-41.22Q38.34-42.28 37.36-42.97L37.36-42.97L37.36-42.97Q36.38-43.66 33.97-43.66L33.97-43.66L33.97-44.81L47.81-44.81L47.81-44.81Q45.75-41.47 43.42-37.94L43.42-37.94L43.42-37.94Q41.09-34.41 38.61-30.98L38.61-30.98L38.61-30.98Q36.13-27.56 33.52-24.38L33.52-24.38L33.52-24.38Q30.91-21.19 28.28-18.56L28.28-18.56L28.28-5.25L28.28-5.25Q28.28-4.63 28.50-3.91L28.50-3.91L28.50-3.91Q28.72-3.19 29.33-2.58L29.33-2.58L29.33-2.58Q29.94-1.97 31.02-1.56L31.02-1.56L31.02-1.56Q32.09-1.16 33.78-1.16L33.78-1.16ZM49.16-22.41L49.16-22.41L49.16-22.41Q49.16-25 49.88-27.73L49.88-27.73L49.88-27.73Q50.59-30.47 52-33.02L52-33.02L52-33.02Q53.41-35.56 55.48-37.83L55.48-37.83L55.48-37.83Q57.56-40.09 60.27-41.78L60.27-41.78L60.27-41.78Q62.97-43.47 66.31-44.45L66.31-44.45L66.31-44.45Q69.66-45.44 73.56-45.44L73.56-45.44L73.56-45.44Q77.59-45.44 80.98-44.53L80.98-44.53L80.98-44.53Q84.38-43.63 87.11-42.03L87.11-42.03L87.11-42.03Q89.84-40.44 91.92-38.25L91.92-38.25L91.92-38.25Q94-36.06 95.39-33.52L95.39-33.52L95.39-33.52Q96.78-30.97 97.48-28.13L97.48-28.13L97.48-28.13Q98.19-25.28 98.19-22.41L98.19-22.41L98.19-22.41Q98.19-19.66 97.48-16.84L97.48-16.84L97.48-16.84Q96.78-14.03 95.39-11.41L95.39-11.41L95.39-11.41Q94-8.78 91.92-6.47L91.92-6.47L91.92-6.47Q89.84-4.16 87.11-2.44L87.11-2.44L87.11-2.44Q84.38-0.72 80.98 0.28L80.98 0.28L80.98 0.28Q77.59 1.28 73.56 1.28L73.56 1.28L73.56 1.28Q69.59 1.28 66.25 0.30L66.25 0.30L66.25 0.30Q62.91-0.69 60.20-2.41L60.20-2.41L60.20-2.41Q57.50-4.13 55.44-6.44L55.44-6.44L55.44-6.44Q53.38-8.75 51.97-11.38L51.97-11.38L51.97-11.38Q50.56-14 49.86-16.83L49.86-16.83L49.86-16.83Q49.16-19.66 49.16-22.41ZM59.91-22.53L59.91-22.53L59.91-22.53Q59.91-19.88 60.20-17.28L60.20-17.28L60.20-17.28Q60.50-14.69 61.16-12.33L61.16-12.33L61.16-12.33Q61.81-9.97 62.86-7.95L62.86-7.95L62.86-7.95Q63.91-5.94 65.41-4.44L65.41-4.44L65.41-4.44Q66.91-2.94 68.88-2.06L68.88-2.06L68.88-2.06Q70.84-1.19 73.34-1.16L73.34-1.16L73.34-1.16Q75.84-1.16 77.88-2.05L77.88-2.05L77.88-2.05Q79.91-2.94 81.47-4.47L81.47-4.47L81.47-4.47Q83.03-6 84.16-8.06L84.16-8.06L84.16-8.06Q85.28-10.13 86.03-12.45L86.03-12.45L86.03-12.45Q86.78-14.78 87.14-17.30L87.14-17.30L87.14-17.30Q87.50-19.81 87.56-22.22L87.56-22.22L87.56-22.22Q87.56-24.69 87.27-27.19L87.27-27.19L87.27-27.19Q86.97-29.69 86.30-31.98L86.30-31.98L86.30-31.98Q85.63-34.28 84.56-36.28L84.56-36.28L84.56-36.28Q83.50-38.28 81.97-39.77L81.97-39.77L81.97-39.77Q80.44-41.25 78.44-42.09L78.44-42.09L78.44-42.09Q76.44-42.94 73.88-42.94L73.88-42.94L73.88-42.94Q71.38-42.94 69.39-42.19L69.39-42.19L69.39-42.19Q67.41-41.44 65.86-40.06L65.86-40.06L65.86-40.06Q64.31-38.69 63.20-36.81L63.20-36.81L63.20-36.81Q62.09-34.94 61.38-32.66L61.38-32.66L61.38-32.66Q60.66-30.38 60.30-27.81L60.30-27.81L60.30-27.81Q59.94-25.25 59.91-22.53Z" fill="#444"></path></g></g><style>text {
  font-size: 64px;
  font-family: Arial Black;
  dominant-baseline: central;
  text-anchor: middle;
}</style></svg>